<?xml version="1.0" standalone="no"?>
<!DOCTYPE svg PUBLIC "-//W3C//DTD SVG 20010904//EN"
 "http://www.w3.org/TR/2001/REC-SVG-20010904/DTD/svg10.dtd">
<svg version="1.0" xmlns="http://www.w3.org/2000/svg"
 width="487.000000pt" height="453.000000pt" viewBox="0 0 487.000000 453.000000"
 preserveAspectRatio="xMidYMid meet">

<g transform="translate(0.000000,453.000000) scale(0.100000,-0.100000)"
fill="#000000" stroke="none">
<path d="M1118 4190 c-216 -37 -429 -189 -525 -375 -22 -44 -52 -111 -65 -150
l-23 -70 -3 -1295 c-2 -1159 -1 -1303 13 -1375 59 -292 285 -519 577 -579 68
-14 224 -16 1343 -16 1119 0 1275 2 1343 16 292 60 518 287 577 579 14 72 15
217 13 1375 l-3 1295 -23 70 c-46 134 -99 223 -192 315 -92 93 -181 146 -315
192 l-70 23 -1300 1 c-715 1 -1321 -2 -1347 -6z m186 -1093 l93 -228 179 228
180 228 97 3 c77 2 98 0 103 -11 3 -8 -30 -194 -73 -413 l-78 -399 -113 -3
c-102 -2 -112 -1 -112 15 0 10 16 97 35 193 19 96 33 175 32 177 -2 1 -57 -67
-123 -152 l-119 -155 -56 0 -56 0 -69 163 -68 162 -40 -202 -40 -203 -113 0
c-62 0 -113 3 -113 8 0 4 37 191 82 415 l81 408 99 -3 100 -3 92 -228z m1411
221 c2 -7 -4 -51 -13 -98 l-18 -85 -204 -5 -205 -5 -6 -30 c-4 -16 -7 -42 -8
-57 l-1 -28 175 0 c96 0 175 -3 175 -7 -1 -5 -9 -46 -18 -93 l-18 -85 -181 -3
-181 -2 -7 -46 c-4 -26 -9 -53 -12 -60 -4 -12 30 -14 201 -14 156 0 208 -3
211 -12 2 -7 -4 -51 -13 -98 l-18 -85 -332 -3 c-183 -1 -332 1 -332 5 0 5 37
191 81 416 l82 407 319 0 c246 0 320 -3 323 -12z m319 3 c3 -4 -17 -122 -45
-261 -46 -233 -49 -256 -37 -294 17 -54 63 -79 131 -72 63 7 100 34 125 94 12
27 42 150 67 273 25 123 47 234 50 247 5 21 9 22 120 22 62 0 116 -3 118 -7
10 -17 -101 -541 -126 -596 -76 -165 -197 -238 -398 -238 -129 0 -195 24 -265
95 -57 59 -78 113 -77 205 1 49 87 513 100 534 6 10 231 9 237 -2z m-828
-1028 c-3 -10 -41 -162 -86 -338 -44 -176 -85 -329 -89 -340 -8 -18 -10 -17
-24 15 -8 19 -79 178 -156 354 -78 175 -141 320 -141 322 0 2 113 4 251 4 234
0 250 -1 245 -17z m-916 -5 c0 -7 -71 -296 -158 -643 l-159 -630 -217 -3
c-204 -2 -217 -1 -212 15 2 10 53 207 111 438 131 519 205 806 210 823 3 9 55
12 215 12 161 0 210 -3 210 -12z m2003 -3 c75 -19 128 -47 179 -93 45 -40 88
-121 88 -164 0 -60 17 -22 54 122 l39 150 207 0 c114 0 209 -3 212 -6 3 -3
-67 -293 -155 -645 l-162 -639 -212 0 c-244 0 -226 -10 -194 105 11 39 49 187
85 330 36 143 69 271 72 285 5 19 -1 14 -29 -21 -109 -141 -370 -238 -639
-239 l-46 0 -52 -212 c-28 -117 -53 -221 -56 -230 -5 -16 -24 -18 -214 -18
l-209 0 34 127 c18 71 90 351 159 623 70 272 131 505 136 518 l10 22 318 0
c250 0 330 -3 375 -15z m-1539 -955 l145 -325 -246 -3 c-135 -1 -248 0 -250 2
-4 4 123 510 169 672 l11 39 13 -30 c8 -16 79 -176 158 -355z"/>
<path d="M2931 2024 c-5 -22 -19 -76 -30 -121 -12 -45 -24 -89 -27 -97 -5 -14
4 -16 59 -16 143 0 231 41 262 123 15 39 15 49 3 74 -19 41 -76 64 -173 71
l-83 5 -11 -39z"/>
</g>
</svg>
